<?xml version="1.0" encoding="UTF-8"?><svg id="b" xmlns="http://www.w3.org/2000/svg" width="295" height="339" viewBox="0 0 295 339"><defs><style>.d{fill:#193a6c;}</style></defs><g id="c"><path class="d" d="M295,239.12v.88c-5.81-.64-11.72-.37-17.19,1.84-1.94.79-3.59,2.25-5.53,2.58v-6.48c3.44-1.54,7.1-2.8,10.91-2.95l-11.02-5.32c-.26.04-2.71,3.74-3.27,4.17-.36.28-.6.34-1.05.28.06-4.04-4.03-7.77,1.53-9.51,2.35-.73,4.56-.68,6.88.08,5.08,1.67,10.35,5.13,15.48,6.93,1.5,2.21,1.94,5.14,3.25,7.51Z"/><path class="d" d="M150.02,321.87c.43-.13.67-3.22.73-3.98.33-4.18.39-8.41.66-12.6.69-.9,5.51-7.26,5.98-7.27.38-.01.38.63.37.94-.27,7.54-.99,15.08-1.24,22.63-.23,1.5-4.39,5.63-5.64,5.86-2.65.49-5.89-.17-8.54-.28s-5.22.12-7.82-.3l2.36-22.97-10.13-1.49c-.35.09-.46,1-.49,1.33-.5,5.69-.76,11.41-1.42,17.09.15,1.55,1.08,2.31,2.6,2.35-.97.64-3.52,4-4.34,4.23-2.46.67-4.68-3.97-4.81-5.98-.4-6.11,3.35-14.9,1.93-20.77-.14-.59-.4-1.11-.7-1.63l5.45-3.3,17.52,1.39-1.18,24.74c2.16-.42,6.89.56,8.7,0Z"/><path class="d" d="M223.32,275.19l17.11-13.83c1.26-.52,2.17.02,3.21.61,2.19,1.23,12.55,12.84,14.63,15.43.49.61.94,1.07,1.04,1.9.12.95-.19,3.91-.31,5.02-.14,1.22-.44,2.46-.59,3.68-3.5-4.25-7.72-7.26-13.41-7.67-3.1-.22-8.25-.47-8.94,3.47-.78,4.44,7.01,5.77,10.26,5.97v7.95c-7.48-.46-13.52-6.05-13.88-13.68-.26-5.71,2.72-9.14,8.46-9.54,1.73-.12,3.14.34,4.83.25-1.07-.91-3.71-4.41-4.73-4.87-.22-.1-.41-.19-.66-.1-4.49,2.92-8.78,6.2-13.22,9.21-1.16.79-2.48,1.8-3.81,2.23v-6.04Z"/><path class="d" d="M187.33,290.36l3.85,22.23c-1.09,2.84-2.88,5.44-4.18,8.22-.21.44-.54.49-.98.49-.85,0-3.37-.52-4.3-.74-12.03-2.91-9.03-15.41-4.85-23.71-2.1.82-6.74.66-8.24,2.37-2.04,2.33.94,4.38.68,5.36-.12.47-3.52,3.84-4.09,3.44-.16-.11-.86-3.2-.89-3.69-.19-3.45,1.57-7.62,3.37-10.47,1.56-.81,11.74-2.5,12.29-3.11.89-.99,1.56-5.33,1.44-6.73-.19-2.33-1.27-3.53-2.63-5.26.83-.49,3.56-4.12,3.97-4.3.13-.06.74-.12.73.15.9,5.36,1.47,10.47-.3,15.75h4.13ZM184.68,313.92c0-5.05-.41-10.12-.89-15.16-.5-1.38-2.17-2.29-3.63-1.93-.49.12-2.31,5.83-2.48,6.72-1.08,5.71.38,10.52,7,10.37Z"/><path class="d" d="M10.94,260.32l20.05-13.85c-1.51-2.78-3.12-5.58-4.89-8.21-.45-.67-1.12-2.24-1.9-1.97l-15.54,9.55c-2.63-.67-5.39-1.15-7.99-1.92-.4-.12-.78.1-.65-.52l18.72-11.64c.54-.46,1.6-1.7,1.79-2.34.18-.6.06-2,.13-2.08.27-.27,6.86.53,7.34,1.37,3.62,6.62,7.96,12.84,11.41,19.55l-19.55,13.47c-3.01.02-5.91-1.23-8.92-1.41Z"/><path class="d" d="M224.21,308.91l-9.77-21.75c-.91-.58-8.86,3.56-10.5,3.73-.26.11-.56.26-.64.55-.36,1.25,6.17,14.9,6.73,17.33,0,.42-3.01,7.04-3.45,7.72-.18.29.03.53-.66.38l-8.21-20.52c-.87-1.32-2.22-2.53-3.89-2.45-.24-.24,1.51-5.94,1.92-6.47.48-.62,8.88-3.76,10.39-4.35,3.55-1.39,7.21-2.51,10.69-4.08h.9s9.96,21.58,9.96,21.58c-1.05,2.26-1.56,5.38-2.66,7.54-.12.25-.64.94-.81.8Z"/><path class="d" d="M68.75,272.69c.12,4.67-2.84,8.53-5.32,12.21,2.44,1.45,3.69,3.96,4.74,6.47.24.57.19,1.94.89,1.15l6.08-8.67c.78-.46,6.71-.66,7.91-.57.44.03.85-.23.73.44l-14,18.71c-.63.49-5.26,1.7-6.2,1.76s.07-1.24.23-1.83c.95-3.53,1.42-7.71-.26-11.09-.33-.66-1.84-3.16-2.73-2.64-.59.75-3.11,4.55-3.65,4.77-.6.25-6.46,1.31-6.71,1.08,1.37-3.32.8-6.79.64-10.26,1.12-1.29,5.56-.98,6.08-1.29.31-.18,3.66-5.62,3.77-6.1.4-1.79-.54-2.51-.76-4.14h8.55Z"/><path class="d" d="M100.86,312.7l6.38-17.63,6.34-1.17c.05.51,0,.99-.14,1.48-1.64,5.81-4.76,12-6.64,17.81-8.41,6.48-18.53,8.2-23.24-3.32-.47-1.15-1.82-5.16-1.78-6.19.02-.66,2.4-1.91,3.03-2.44,2.64-2.2,8.46-7.2,5.29-10.86-.66-.76-2.13-.95-1.89-2.09,1.89.47,6.88-1.7,8.26-1.03.9.44,1.22,2.88,1.2,3.83-.04,2.28-1.36,4.08-2.97,5.6-.97.91-6.1,4.42-6.34,4.86-.85,1.53.53,4.6,1.38,5.98,2.24,3.62,7,5.2,11.11,5.17Z"/><path class="d" d="M24.8,270.63l6.78-.88c0,2.36-.03,6.29,2.09,7.78,2.51,1.77,5.27.21,6.71-2.09,3.46-5.54,1.4-13.51.35-19.53l6.78-1.04,11.53,11.18.28,1.04c-1.74-.21-4.75,2.13-6.28,1.73-1.01-.27-4.19-4.62-5.52-5.26v4.27c0,7.02-4.82,13.88-12.24,13.93-1.88.01-7.56-.92-8.66-2.48-.28-.4-1.81-4.05-1.81-4.37v-4.27Z"/><path class="d" d="M277.59,263.26l-18.78-12.92-7.32,8.5c-.6,0-2.81-5.45-3.36-6.28l8.21-10.37c.63-.63,1.6-.51,2.39-.29l19.49,13.84c.23.3-.32,7.29-.62,7.52Z"/><path class="d" d="M178.19,262.38l1.12,9.5c-.76,2.28-2.45,4.02-3.78,5.96-.4.25-6.18-1.03-7.5-1.05-3.4-.06-8.6,1.04-9.01,5.02,2.43.38,4.94.49,7.37,0-1.48,5.21-8.54,5.53-12.86,3.84l4.45-12.38c5.21-1.74,11.14-2.2,16.37-.29.32-.36-.87-5.15-.53-6.27.08-.25,3.05-3.77,3.35-4.02.37-.32.5-.39,1.02-.31Z"/><path class="d" d="M114.47,277.11c.16.17-.36,3.1,1.5,4.25l16.65,6.05c.37.36.08.49-.16.73-.27.27-5.27,2.52-5.74,2.53-4.51-1.64-9.45-2.94-13.87-4.72-4.68-1.88-5.87-3.48-5.45-8.84.93.19,6.83-.25,7.08,0Z"/><path class="d" d="M154.29,329.23c.12.46-.12.69-.28,1.04-.29.64-2.57,4.35-2.97,4.69-.99.82-4.66,2.1-6.03,2.52-2.11.65-6.49,1.81-8.55,1.45-1.52-.27-4.62-2.76-4.84-4.33-.16-1.09,3.26-2.9,3.96-3.89.42-.09,1.55,1.87,2.5,2.19.76.25,1.99.25,2.79.16,3.47-.38,8.56-2.87,12.22-3.7.4-.09.78-.19,1.19-.13Z"/><path class="d" d="M126.57,148.42c.13-.13-.42-2.49,1.01-2.04.16.05,1.91,2.1,2.24,2.48.38.43.47,1.06.9,1.46,2.36,2.2,7.02,2.09,9.84,2.55,8.86,1.45,16.9,5.41,25.13,8.78,1.04.03,2.11.12,3.15-.04.77-.12,4.55-1.47,5.22-1.86.78-.45,1.68-2.53,1.34-3.37-1.4,1.51-4.56,1.09-3.47-1.4.46-1.05,2.43-1.37,2.14-3.02-.7.98-3.27,1.86-3.78.39-.83-2.37,2.93-2.23,2.9-4.52-2.66,1.55-5.87,2.48-8.84,1.18-.32,1.84.57,3.31,1.52,4.81.68,1.07,3.61,3.72,2.1,4.93-2.6,2.06-5.71-1.65-6.72-3.84-.22-.48-.38-1.7-.45-1.77-.06-.06-.98.35-1.62.32-6.73-.24-15.88-5.04-19.35-10.9-3.47,1.62-6.56.72-9.94-.52-.75-.28-1.52-.99-2.13-1.14-.8-.2-3.68,1.38-5.24,1.56-.77.09-3.76-.06-3.9.08-.08.09-.12,1.96-.3,2.35,1-.3,2.79-.66,2.68.73-.17,2.09-3.39,1.54-3.79,3.31-.71,3.17,2.07,6.47.82,9.8.16.17,2.95-1.82,3.63-1.71.48.08,2.2,1.55,3.43,1.87.64.17,2.47.45,3.11.45.69,0,3.65-.67,3.98-.32,1,1.05-3.49,3.41-4.32,3.78-2.2.98-4.76,1.79-7.1.69-.64-.3-1.48-1.36-2.07-1.48-.99-.19-1.7.44-3.11-.64-.88-.67-1.32-2.52-1.44-2.62-.13-.11-1.2,0-1.85-.36s-.71-1.07-.8-1.13c-.2-.14-2.49,1.14-3.37,1.17-.32.01-4.61-.97-5.07-1.12-2.05-.66-2.35-1.88-3.4-2.94-.48-.48-1.6-.94-2.43-1.84s-1.36-2.97-2.34-1.45c-.2.32-.83,2.15-.78,2.44.04.24,2.68,1.38,2.34,3.21-.13.71-1.31,1.62.49,1.72.68.04,2.53-.83,2.8.14.54,1.93-4.42,3.01-5.74,3.08-2.89.17-4.83-.42-7.22-1.94-.46-.29-.82-.98-1.21-1.15-1.65-.74-3.33-.15-5.17-1.91-2.26-2.15-.13-4.38.12-6.97.31-3.21-.71-4.52,2.26-6.87,2.07-1.65,4.29-1.56,6.62-2.52,2.09-.86,3.95-2.19,5.31-3.97-2.85,1.23-5.96,1.29-8.68-.29-3.07,4.86-9.12,10.04-14.03,4.12-1.35,6.76-10.47,9.09-14.45,3.24-.57,3.96-1.77,7.8-4.07,11.11-2.93,4.22-6.17,6.23-10.09,1.55-.4,2.86-.9,6.52-1.79,9.26-1.46,4.51-5.54,5.4-9.42,3.11,1.41,6.41,2.77,12.87,4.51,19.2,1.53,5.6,3.47,11.05,5.22,16.58.11,1.88-.17,3.81-1.76,5.01-4.34,3.25-10.61-3.76-12.36-7.4-.94-1.96-1.31-4.07-1.79-6.17-3.69.24-5.17-.82-7.39-3.52-4.6-5.59-7.42-15.7-8.77-22.75-3.39-17.66-2.92-36.06-2.45-53.95-.89.48-1.84.94-2.85,1.13-.44.08-.48.07-.4-.4,3.73-8.43,7.46-16.87,10.76-25.48,1.33-3.46,2.16-7.14,3.55-10.59,4-9.91,16.17-29.41,27.22-31.72,17.98-3.75,24.79,14.94,39.28,18.03,1.72.37,6.43.81,7.52-.76.16-.23,1.85-3.53,1.89-3.74.24-1.2-1.19-1.65-.71-2.72.63-1.4,5.6-2.32,6.64-3.99-5.53-3.48-.35-3.47,2.29-5.08.72-.44,4.56-3.79,4.79-4.35.27-.65-1.96-.58-2.01-1.53-.11-.35-.1-.7,0-1.05.26-.9,3.32-1.69,4.46-2.33,1.85-1.04,3.56-2.6,5.22-3.92l-3.09-1.62c-2.67-2.4.52-2.31,2.08-2.93,2.54-1,5.25-2.71,6.33-5.31-.99.35-2.84-2.1-2.36-2.65l4.42-1.48c-.51-.74-1.05-1.36-.88-2.35.79.34,4.38.35,4.75-.18.25-.35.91-2.35,1.28-3.08.27-.52,1.05-1.2,1.05-1.61,0-.64-2.04-2.06-1.22-2.96.23-.25,4.42-1.37,5.34-1.75,4.11-1.68,6.17-4.45,9.73-6.49.62-.36,2.43-.64,2.34-1.41-.04-.35-1.19-2.21.21-2.54.32-.08,4.92,2.65,6.31,1.75.41-.36-1.66-1.73-1.03-2.36,1.71.29,3.11,1.3,4.8,1.68,4.32.98,8.29.43,12.36,2.98,2.06,1.29,2.84,2.73,4.1,4.72,3.91-1.05,8.06-1.43,11.82.29,5.09,2.32,7.39,9.12,3.49,13.59l-1.93-2.49c-1.74-2.14-9.16,1.9-9.72,3.23-.23.54.33.44.64.52,2.24.63,4.78.02,7.01-.37,1.95,4.88-1.06,7.91-5.82,8.45-5.09.58-8.76.16-14.06,1.57-7.26,1.94-11.25,5.85-13.75,12.93l-1.46-.28c.3,1.61-.4,3.36-.32,4.87.05,1.02.83,2.03.63,2.88-.1.4-1.43.23-1.22,2.13.13,1.13,1.84,1.57,1.73,2.89-.09,1.1-1.24.97-1.57,1.36-.48.56,1.46,2.32,1.93,2.81.2.59-.88.61-.9.9-.06.71,2.06,2.66,2.67,3.24.24.23.83.42.85.46.32.55-.55,1.13-.56,1.59,0,.61,3.03,3.75,3.7,4.26,2.11,1.6,5.13,1.16,1.32,3.83,5.69,1.15,11.68-2.88,15.93-6.32,5.48-4.44,8.32-8.99,12.69-14.13,7.73-9.09,18.59-7.17,28.97-3.9,22.34,7.04,45.35,36.26,55.25,56.74,8.37,17.3,13.68,40.71,11.01,59.89-.49,3.52-2.37,6.5-2.84,9.24-.29,1.74.08,3.77-.06,5.54-.27,3.5-1.92,13.35-5.63,14.7-1.91.69-4.66-.82-4.98-2.95-.57-3.74-.43-8.19-.91-12.05-.42-3.45-1.09-7.16-1.8-10.57-.63-2.98-2.38-11.42-3.65-13.73-.07-.13-.36-.37-.44-.29-.18,2.31-3.38,5.63-5.72,5.57-5.65-.14-8.35-10.54-10.21-14.7l-1.61,2.95c-8.76,8.88-14.86-4.88-17.84-11.66-2.18.31-3.62.99-6.03.73-10.1-1.1-16.24-13.03-21.05-20.5-.15-.23-.21-.83-.66-.38-.12.12-.68,2.34-1.13,3.14-.59,1.05-1.37,1.83-2.11,2.74,4.89,2.84,9.62,6.15,14,9.73,5.95,4.85,13.09,11.61,16.64,18.43,2.08,4,3.28,5.89,5.71,9.62,5.63,8.66,15.25,23.88,16.45,33.93,1.08,9.02-1.61,22.29-10.84,26.28-.56.24-1.77.31-1.83.38-.13.14-.27,3.2-.39,3.88-1.54,9-5.51,15.69-15.49,16.19-1.53,5.49-6,11.34-12.31,10.85-1.35-.1-4.88-1.62-5.52-1.44-.53.14-2.6,2.6-3.32,3.19-6.07,4.99-12.2,4.28-17.08-1.78-.54-.67-3.84-5.75-3.42-6.16,3.51.51,6.66-.17,9.26-2.68,4.75-4.59,7.46-16.95,7.84-23.38.02-.28.28-1.89-.43-1.61-.88.34-2.59,2-3.92,2.57-1.73.73-3.57.75-5.22,1.57-10.9,17.1-22.17,39.18-42.05,47.24-7.27,2.95-21.13,3.91-24.73-4.75-1.97-4.73-2.43-9.57,1.87-13.07.47-.38,1.21-.4,1.33-.88-8.11,1.17-21.23,1.54-17.19-10.54.18-.55,1.75-3.41,1.56-3.59-10.59,2.61-23.01,5.08-33.69,1.68-5.35-1.71-10.28-7.72-9.31-13.54.41-2.44,4.83-7.47,7.18-8.15.57-.17.68,1.4.96,1.95,5.08,9.81,21.92,3.33,29.7.1,6.55-2.72,13.09-6.26,19.32-9.58,4.28-2.27,8.3-4.52,11.79-7.95-1.6.33-2.97,1.95-4.58,2.19-1.03.16-2.97.27-4.1.32-12.34.64-25.43-1.89-16.35-17.06,3.08.46,6.12,1.78,9.24,2.04,21.41,1.74,28.41-19.59,29.05-37.1-5.06-1.43-9.58,1.13-14.58.87-.95-.05-3.18-.34-3.99-.73-1.43-.7-1.12-2.26-2.16-3.29s-3.06-.88-.2-2.31c-.44-.4-2.41-3.09-1.03-3.09.73,0,4.98.19,5.16,0ZM180.84,27.39h-6.05c-.87,0-3.64-.69-4.64-.97-.62-.17-2.29-.75-2.8-1.02-.35-.19-.49,0-.38-.66,7.35-1.03,10.75-10.25,19.47-6.78-.59-5.54-5.56-6.85-10.47-6.47-.78.06-4.12.6-4.66.88-.14.07-1.24,2-1.68,2.51-.67.77-3.65,4.09-4.38,2.01-1.02-2.89,2.67-2.63,3.34-4.23,1.8-4.3-4.34-6.59-7.5-7.22-5.31-1.06-10.86-.3-15.94,1.34-.46.63,2.47,2.81,2.06,3.82-1.9.28-3.54-1.72-2.95-3.53-3.76.59-2.36,2.61-2.07,5.3-1.37.51-1.61-1.92-1.77-2.06-.19-.17-3.23,1.29-3.24,1.62,1.38,1.05,3.33,6.31.44,6.31-1.75,0-2.22-3.25-2.51-4.54-.06-.26.13-.66-.43-.44-1.24.48-6.62,5.79-5.75,6.77l2.06-.29c.58,2.94-1.82,3.08-4.13,2.95.02.73.49.95-.17,1.43-1.19.85-3.09,1.37-4.55,1.22.39,1.17,3.34,1.27,3.72,1.75.23.29-.23,1.09-.19,1.62.23,2.72,1.55,4.76,3.27,6.78.71.83,3.11,2.19,2.23,3.41-1.02,1.41-3.34-1.74-3.96-2.57-.68-.92-1.54-2.25-2.03-3.27-.35-.74-1.47-4.7-1.71-4.77-.97-.27-1.18,1.11-1.62,1.62-.53.62-1.59,1.72-2.21,2.21-.69.53-3.28,1.62-3.39,1.77-.58.8,3.14,2.09,3.84,1.76-.8,2.29-1.02,3.69,1.5,4.83,2.7,1.21,2.6,0,3.73-1.8.19-.3-.03-.52.66-.38-.24,2.89.54,8.14,4.05,8.76,1.25.22,5.54-1.09,4.36,1.53-.77,1.71-4.04.03-2.73,2.44,1.11,2.04,5.21,2.8,7.27,1.81.17-.08,1.32-.93,1.37-1,.31-.48-.9-3.6-1.15-4.46-.12-.44-.15-1.57-.23-1.68-.07-.08-1.43-.38-2.01-.8-1.9-1.38-2.31-4.18-2.67-6.31.64-.15.66.35.95.67.84.92,1.39,2.05,2.44,2.86,2.49,1.92,5.2,1.83,6.64-1.18.79-.07.8.8,1.55,1.24.42.25,2.32.76,2.57.52-.72-2.26,5.12-7.01,5.3-7.82.2-.91-3.48-1.49-3.17-2.88.07-.31.63-.63.53-.78-.1-.15-2.39-1.4-2.51-2.36-.28,3.37-3.26,2.2-4.72.3s-1.38-3.98-1.32-6.19c.67-.12.47.03.66.37.94,1.73,1.05,3.77,3.46,4.49,2.03.61,1.24-.34,1.53-.67.83-.93,5.79.77,7.03,1.11-1.85,3.6.8,3.46,3.68,3.23,3.3-.27,6.86-1.24,10.33-1.46,2.63-.17,7.31.36,9.58-.45.99-.35,2.01-1.03,2.07-2.21ZM117.13,38.87c-.58-.58-3.72,2.95-3.81,3.43-.36,1.98,5.01,1.79,5.3,2,.26.19.38,1.35.73,1.92,1.28,2.1,4.22,1.82,6.33,1.78-.69-1.53-1.63-2.91-1.48-4.71-3.25.46-6.87-.73-7.08-4.42ZM144.26,50.65c-.13-2.12.72-4.12,1.04-6.18-1.25.56-2.61,1.12-3.99,1.17-.65.64,1.97,4.72,2.95,5.01ZM115.21,45.94c-1.45.14-3.09-.1-4.57,0-.33,5.74,4.27,5.74,8.55,4.27-1.54-1-2.92-2.66-2.95-4.57-.43-.16-.83.28-1.03.3ZM128.04,49.77c-2.76.88-5.32,1.69-8.25.89.98,7.6,7.25,8.9,13.39,5.61,2.25,4.44,6.82,6.31,11.68,5.87-.71-.75.37-2.52.29-2.63-.03-.04-.51-.1-.72-.31-1.2-1.18-2.26-2.73-2.53-4.41-5.15,1.11-12.44,1.37-13.85-5.02ZM108.57,50.06c-.25-.23-2.25,1.64-2.58,1.97-.19.2-.66.17-.36.82.53,1.17,3.4.23,3.8.48.18.11.55,3.33.77,4.09,1.62,5.69,6.7,6.11,11.74,5,3.66,5.86,11.21,10.27,16.29,3.25,2.18,1.85,4.56,4.81,7.93,4.39.31-.04,2.46-.76,2.53-.86.3-.41-1.22-1.34-1.6-1.79s-1.01-1.93-1.1-1.99c-.39-.24-3.63.04-4.52-.05-1.72-.17-3.67-1.04-5.14-1.94-.83-.51-3.79-3.24-4.07-3.32-.48-.13-5.04,1.42-6.44,1.44-4.52.05-7.37-3.69-7.51-7.96-3.37.42-8.93.68-9.73-3.54ZM90.88,69.79h-4.28c-16.03,0-23.06-22.72-40.21-18.05-19.89,5.42-28.19,40.54-35.88,56.64l-2.67,4.7c7.67-4.44,9.69-14.68,13.07-22.29,6.01-13.52,17.69-33.74,35-32.19,4.81.43,7,3.71,11.46,5.05.63.19,1.99.18,2.28.38.36.25.38,3.68,2.66,5.3,2.78,1.98,5.79.42,7.06,1.19.34.21,1.19,2.4,1.92,3.09,1.48,1.42,3.62,1.67,5.57,1.44,3.61-.43,3.32-2.22,4.01-5.27ZM190.64,60.73c.08-.13,2.23-1.51,2.58-1.69,6.47-3.32,11.57-.93,17.78,1.41,17.05,6.43,34.21,18.14,44.41,33.4.6.9,2.87,4.2,3,4.97.14.85-.23,2.13-1.27,1.86-.58-.15-2.39-3.86-2.97-4.72-3.44-5.11-8.11-10.02-12.73-14.09.41,2.37,1.54,4.83,1.6,7.26.03,1.11-.46,2.03-.21,3.13.17.73,3.48,5.25,4.19,6.42,14.48,23.95,22.7,51.11,24.6,79.09,1.25,3.44,3.23,1,4.34-1.07,4.76-8.9,1.98-27.5-.25-37.18-2.21-9.61-5.55-20.31-9.6-29.29-10.1-22.41-39.29-55.96-65.67-56.94-12.31-.46-14.14,8.05-21.25,15.62-6.17,6.57-16.27,14.96-25.81,10.89.2,1.05-1.17,1.7-.75,2.64.67,1.51,3.46,2.24,5,2.04,2.66-.34,4.5-3.47,4.8-3.53.46-.09,1.35.31,2,.33,5.36.14,11.25.04,13.45-5.74.22-.58.21-1.85.56-2.09.29-.2,1.16-.13,1.7-.36,3.15-1.33,2.63-2.7,3.99-3.82,1.25-1.03,3.18-.76,4.93-2.88,2.06-2.5.98-4.69,1.55-5.67ZM107.99,55.36c-.16-.16-4.21.32-4.43.44-.26.15-1.09,1.7-1.61,2.22-.56.57-2.96,1.64-2.04,2.37,1.16.91,3.75,1.08,5.13.57-.17,1.12-1.61,1.99-2.57,2.29-.65.2-1.61-.3-1.57.51s1.15,3.24,1.65,3.95c3.17,4.51,7.54.75,10.15-2.21.09-.38-1.6-1.49-2.05-2.04-1.63-1.99-2.6-5.56-2.65-8.1ZM206.8,76.27c5.18.51,6.55-1.96,5.02-6.63-.61-1.86-2.38-3.31-2.61-4.78-.16-.98.61-1.61.53-1.97-.16-.7-8.36-2.76-9.59-2.82-1.77-.08-5.5.84-6.19,2.65-1.14,2.97-1.07,5.51-4.17,7.61-1.08.73-2.61.95-3.5,1.51-.55.34-.75,1.05-1.13,1.38-.48.42-2.51,1.48-1.78,1.87.66.35,2.42.36,3.21.29,4.68-.39,7.14-5.18,8.63-9.05.93-2.41.02-3.27,3.17-3.01,2.7.22,5.65,2.17,7.06,4.44.33.54,1.21,2.7,1.34,2.79.95.64,4.15-1.3,4.07,1.12-.09,2.42-3.27,1.67-3.63,2.24-.26.41-.13,1.77-.42,2.37ZM48.8,65.27c1.19,1.21,6.36,3.77,7.95,3.29,1.66-.5.72-4.99,2.27-6.28-.01-.28-2.4-.95-2.82-1-2.3-.28-11.26.07-7.39,3.99ZM99.43,63.31c-.1-.1-2.42.03-2.91.04l-4.47,11.29c2.48,1.67,6.76-5.84,8.41-3.09,1.58,2.63-5.13,6.55-7.52,5.89,1.13,5.25,5.48,7.43,10.01,3.94-1.9-2.89-.64-6.5-1.17-9.38-.17-.89-1.56-2.43-1.92-3.97-.2-.87-.26-4.56-.43-4.73ZM68.15,66.27c-1.47.36-5.61-2.19-6.48-1.64-.35.22-1.43,3.64-1.46,4.17-.17,2.39,2.67,3.89,4.58,4.51s6.03,1.63,6.92-.86c-2.97-.64-3.87-3.41-3.55-6.18ZM214.18,64.79l1.62,9.13c4.67,2.65,9.1,6.02,12.53,10.17,2.5,3.02,4.59,8.44,8.85,9.15,2.85.47,3.51-3.47,3.22-5.6-.23-1.73-2.55-8.69-3.65-9.9-.85-.94-3.06-2.36-4.2-3.17-5.67-4.04-11.91-7.21-18.38-9.77ZM122.12,65.4c-1.28.03-2.39.65-3.7.82-2.03.27-3.9-.86-4.08,2.06-.09,1.56,1.06,2.83,2.22,3.7,3.19,2.42,6.52,2.09,9.71-.13.41-.58-1.4-1.56-1.66-1.87-1.11-1.29-2.08-2.91-2.49-4.58ZM42,73.24c-1.72-1.44.79-5.8,1.68-7.42-2.28.6-7.71,5.47-8.35,7.56-.93,3.01,2.09,5.61,4.97,5.57,1.8-.03,5.7-1.73,6.84-3.05.22-.25,2.18-6.1,2.02-6.4l-3.11-2.94c-.19.94-.8,1.71-1.05,2.64-.29,1.11-.46,6.16-3,4.04ZM197.97,78.91c5.78,1.31,8.33-5.83,4.82-9.67-.71-.78-3.09-2.25-4.1-2.39-.65-.09-.35.09-.44.44-.2.82-.22,1.54-.54,2.41-.27.73-1.83,3-1.83,3.18,0,.38.63,1.02.83,1.54.53,1.41,1.08,2.99,1.26,4.49ZM143.64,73.07c-.08-.13-1.96-.95-2.63-1.64-.97-1-1.36-2.32-2.2-3.39-2.34,2.45-5.55,4.19-9,4.41-.45.42,2.51,3.3,2.97,3.65,2.99,2.27,6.55,2.83,9.42.03.57-.56,1.92-2.29,1.43-3.06ZM134.83,80.1c-3.05-.86-4.67-3.74-6.36-6.18-4.47,2.81-10.24,4.26-13.98-.45-.79-.99-1.14-2.15-1.97-3.06-2.8,1.13-5.5,2.73-8.66,2.33-.28,4.67.92,9.95,6.79,8.4,2.9-.77,5.36-2.6,7.78-4.26,3.88,5.84,10.83,8.86,16.4,3.23ZM56.67,72.17c-.31.29-.51,5.6-2.23,5.6-1.32,0-1.06-2.63-.83-3.5.38-1.43,2.33-2.87-.98-2.99-1.05-.04-1.66,1.97-2.02,2.94-2.27,6.13-.58,8.54,6.16,7.62,3.6-.49,3.42-3.66,3.96-6.53-.57-.37-2.45-2.97-2.67-3.09s-1.3-.13-1.4-.05ZM149.87,71.27l-4.42,2.21c1.23,1.55,5.1,2.96,6.78,1.77.52-.37.1-.42-.15-.74-.78-.98-2.02-1.82-2.22-3.24ZM82.62,77.45c-.63-.8-1.68-1.13-2.5-1.77-.55-.44-1.49-1.71-1.93-1.9-.25-.11-3.69-.58-3.83-.44.14,4.87,4.21,6.07,8.26,4.12ZM193.13,82.65c1.89-1.88,1.51-5.14.25-7.26-.87,1.02-3.74,1.87-4.42,2.66-.58.67-1.27,2.99-2.09,4.09-.72.96-1.85,1.63-2.49,2.67,2.5.09,6.88-.29,8.75-2.16ZM62.85,76.57c-.25,2.84-.85,5.54.94,8.05,2.7,3.78,12.71,1.52,11.32-3.64-.25-.92-3.11-4.91-4.08-4.67-1.44.35-.67,6.72-3.3,6.72-3.43,0,1.15-5.48.44-6.16l-5.31-.3ZM150.76,79.22c-2.36.11-4.63-.81-5.75-2.94-1.69,2-4.04,3.12-6.34,4.27,3.95,4.44,10.3,5.47,12.09-1.32ZM32.47,76.57c-.45-.11-.47.07-.72.31-1.19,1.19-3.8,6.18-4.74,7.93-2.71,5.02-8.16,15.44-7.44,20.99.41,3.18,2.87,4.31,5.9,3.69,2.65-.55,4.94-4.53,5.39-6.99.2-1.09,0-2.08.17-3.07,1.02-6.03,2.82-11.85,5.23-17.47-1.26-1.62-3.58-2.98-3.79-5.39ZM204.44,79.81c-.36.51,2.48,2.59,2.96,3.08,1.74,1.79,3.81,4.21,5.25,6.25,2.18,3.1,1.78,4.48,5.87,5.92s7.52.87,8.74-3.81c.77-2.94.45-3.33-1.43-5.55-3.08-3.64-7.47-6.63-11.86-8.48l-2.45,1.56,10.77,9.88c.48.89-.97,2.47-1.82,2.57-1.84.2-5.72-5.56-7.04-7-.67-.73-5.06-5.26-5.47-5.44-1.78-.76-2.16.48-3.53,1.03ZM88.81,77.45l-2.64.31.88,3.22,1.76-3.53ZM183.5,78.93c-1.37.02-2.3-.83-3.38-1.48-.23.8-3.19,3.61-3.11,3.97.21.92,3.19.79,4,.47.64-.25,2.93-2.47,2.49-2.96ZM48.98,83.66s-.65-.15-1.02-.62c-.43-.54-.78-2.22-1.21-2.34-.25-.07-2.31.85-2.5,1.08-.56.68-1.72,5.09-1.96,6.21-.56,2.56-.6,6.41-1.35,8.67-.43,1.31-2.19,2.56-2.56.66-.72-3.71,2.75-11.15,3.82-14.86-.97.16-3.36-.35-3.99.28-1.8,4.97-4.02,10.29-4.78,15.55-.52,3.62-1.27,7.48,3.1,8.53,6.93,1.66,7.1-6.69,8.23-11.06.57-2.2,1.21-4.45,1.94-6.6.28-.83,2.44-5.26,2.27-5.51ZM194.52,92.37c1.65,1.7,6.77,6.82,8.73,7.33,4.88,1.27,9.93-1.6,8.86-7.08-.08-.42-3.63-4.46-4.27-5.16-1.29-1.42-5.79-6.08-7.4-6.46-.27-.06-2.4-.27-2.5-.19-.31.22-1.08,2.85-.86,3.1,3.32.85,6.42,3.31,7.91,6.38.45.93,1.57,3.12-.13,3.36-1.86.26-1.7-1.1-2.36-2.05-.83-1.19-5.59-5.87-6.76-5.9-.5-.01-1.84,1.02-2.52,1.32-.58.25-2.56.64-2.65.74-.16.17.01.42.2.61,1.27,1.31,2.48,2.7,3.74,4ZM124.17,85.15c-2.2-.96-3.79-2.8-5.71-4.16-2.68,1.37-5.04,2.29-7.96,2.95-1.31.3-.47,2.02-.03,2.95,3.15,6.66,12.17,5.11,13.69-1.74ZM82.32,81.28c-1.09-.13-6.05.31-6.49,1.1-2.43,4.38,4.71,11.81,8.54,7.86,2.42-2.5,1.54-5.85-.72-8.07-.7-.13-.36.31-.45.72-.23,1.05-.24,4.19-1.32,4.3-2.45.25.42-4.73.44-5.91ZM94.68,85.73c-.07-.1-.7-.16-.95-.36-.6-.47-1.45-1.08-1.98-1.57-.37-.34-1.14-2.03-1.61-1.34-.65,1.58-2.36,8.9-1.04,9.88.79.59,2.75-1.5,3.25-2.09.56-.65,2.81-3.86,2.33-4.52ZM141.3,85.43c-1.75-.62-3.24-1.99-4.56-3.26h-.43c-1,2.08-3.32,3.68-5.59,4.13,1.22,6.89,9.78,5.58,10.58-.87ZM107.36,84.26c-.11-.16-2.3-.69-2.7-.58-.45.12-2.05,1.99-2.9,2.43-2.51,1.31-4.56-.21-3.06,4,1.07,3,4.49,5.74,7.82,4.87.84-.22,3.57-1.89,3.79-2.72.14-.51-2.26-3.01-2.64-4.34-.28-.98-.21-3.49-.32-3.66ZM182.61,85.4c-3.05.85-5.69-.11-8.38-1.45-1.03,1.44-1.78,3.07-2.97,4.41-.47.53-1.43.66-1.34,1.46,1.79.34,3.28,1.35,5.17,1.47,3.98.25,6.71-2.09,7.52-5.88ZM157.25,87.17c-1.87.31-4.88-2.6-6.07-2.66-1.03-.06-2.44,1.79-3.66,1.78.92,4.91,8.12,5.76,9.73.88ZM170.22,84.52c-1.03.18-2.03.54-3.08.6-1.86.11-3.67-.92-4.88.43,2.69,3.36,6.66,3.53,7.96-1.03ZM56.95,85.11c-.84.3-4.68-.38-5.01-.17-1.29.83-2.8,7.27-3.15,8.95-.63,3.04-1.97,8.84-.55,11.56,1.8,3.45,7.12,1.39,9.01-1.06,1.97-2.55,1.37-5.09,1.91-8.11.27-1.48.75-3.27,1.13-4.76.25-.96,1.33-3.32,1.34-3.97,0-.29-1.38-2.15-1.57-2.73-2.93,4.29-3.7,9.75-5.03,14.7-1.19,1-2.93,1.25-3.09-.72-.29-3.77,4.09-9.89,5.02-13.69ZM128.59,86.62c-.19-.31-2.04-.56-2.47-.04-.23.28-.77,2.22-1.17,2.95-1.09,2-2.27,3.17-4.27,4.26,2.89,3.87,8.6,3.48,10.6-1.15-1.38-.91-2.31-2.55-2.63-4.17-.1-.54.12-1.55-.06-1.85ZM145.74,86.58l-3.24-.29c-.09,1.49-.98,3.59-1.82,4.81-1.46,2.13-3.67,1.7-1.58,4.33,2.28,2.86,5.16,3.11,8.1,1.01.32-.23,2.3-2.15,2.38-2.34.21-.52-1.12-.62-1.63-1.02-1.49-1.16-2.36-4.63-2.2-6.49ZM162.51,89.28c-.08-.14-2.36-1.52-2.75-1.81-.93,1.54-1.8,3-3.25,4.12-1.95,1.51-4.48,1.37-4.6,4.24l-2.04,2.82c2.82.87,5.4,1.09,7.81-.89.52-.43,1.4-1.77,1.51-1.78.63-.09,3.31,1.99,4.54,1.49-.48-1.37-1.53-2.5-1.74-4-.09-.67-.1-1.65-.01-2.32.08-.58.8-1.41.53-1.88ZM179.66,93.94c1.3,4.98,9.44,12.5,14.61,8.25.99-.82,1.83-2.24,1.48-3.54-.57-2.16-7.21-10.15-9.23-10.82-1.34-.45-2.05,1.14-1.81,2.09.12.49,2.21,1.73,2.77,2.26,1.51,1.42,3.88,4.32,3.05,6.44-3.03.76-3.09-1.63-4.43-3.58-.41-.59-1.95-2.68-2.51-2.82-.83-.21-2.7,2.02-3.92,1.74ZM64.05,89.24c-1.17,3.24-1.92,6.7-2.08,10.15-.22,4.76.9,12.35,7.08,7.36,1.21-.98,4.88-5.09,5.37-6.42.15-.4,1.38-7.62,1.37-8.03,0-.24-1.28-3.15-1.43-3.25-.2-.14-2.18.13-2.32.22-.18.12-.82,3.66-.9,4.26-.2,1.52-.1,4.61-.47,5.72-.49,1.51-2.91,1.57-3.35.07-.73-2.49,2.59-9.4,2.29-9.8-1.82.79-3.75-.15-5.58-.28ZM168.99,96.53c.94-.55,1.08-2.47.81-3.48-.83-3.08-3.57-2.54-6.05-2.93-.11,1.91,2.82,7.83,5.25,6.41ZM105.92,97.47c-4.59.66-8.75-2.34-9.74-6.77-2.52,1.6-8.71,7.24-10.17,2.06-.42.46-1.68.81-1.87,1.37-.63,1.83.37,6.8-.06,9.07-.3,1.59-2.33,1.42-2.36-.57-.02-1.12,1.6-7.66,1.18-8.11-1.43.29-2.7.51-4.12,0-.95,2.87-.84,5.72-.89,8.69,0,.57-.32,1.14-.32,1.77,0,2.65,1.54,7.08,5.03,5.59,1.14-.49,4.58-6.23,4.9-7.5.22-.89-.38-1.62-.47-2.5-.16-1.54.34-4.56,2.06-5.15-.93,5.5,3.08,10.16,8.64,7.01.89-.5,5.23-4.4,5.24-.98,0,2.26-3.34,4.08-5.03,5.01,4.58,6.03,12.47,7.62,16.81.44-4.62-.78-9.47-4.15-8.85-9.43ZM230.1,91.88c-.76-.65-.63.89-.25,1.58,1.17,2.14,4.39,5.54,5.98,7.87,4.3,6.29,6.94,11.77,9.75,18.83,2.12,5.33,6.24,20.22,10.5,23.09,1.3.87,2.27,1.2,3.29-.21,3.45-4.77.8-10.5-.94-15.39-4.14-11.65-10.04-22.64-16.54-33.12-.34-.24-1.5.81-1.43,1.27,2.93,4.54,5.72,9.23,7.98,14.14.73,1.58,3.67,8.12,3.44,9.4-.37,2.07-1.93,1.48-2.83,0-2.19-3.6-4-9.47-5.92-13.52-.65-1.36-3.95-8.38-4.62-8.93-.51-.42-3.17-.49-4.48-1.13s-2.62-2.09-3.64-3.15c-.22-.23-.25-.69-.29-.73ZM136.01,93.94c-.06-.07-1.61-.03-1.88.05-.76.24-4.27,5.42-6.38,4.96.73,4.86,9.7,5.48,11.93,2.04,1.2-1.85-.11-1.34-1.29-2.21s-1.95-1.88-2.31-3.29c-.11-.42-.02-1.49-.07-1.55ZM118.25,94.59c-.17-.1-3.54-.36-3.85-.3-1.79.34-4.71,2.97-7,2.9-.01,2.08,1.75,5.05,3.7,5.85,2.95,1.22,8.11.53,9.99-2.34,1.57-2.39-.4-2.84-1.9-4.56-.3-.34-.87-1.51-.95-1.55ZM177.82,104.18c-1.6,1.65-3.07-2.84-3.81-3.85-.61-.84-1.44-1.54-2.2-2.24-1.42.97-2.66,2.07-4.23,2.8,1.7,3.69,3.46,6.59,6.98,8.9,1.9,1.24,4.05,2.46,5.97.47.99-1.03,2.41-5.4,2.04-6.68-.08-.27-3.12-3.38-3.73-4.24-.53-.75-2.57-4.65-2.9-4.76s-2.27-.13-2.42,0c-.07.06-.67,1.65-.62,1.82.09.31,1.73,1.22,2.2,1.66,1.12,1.04,4.17,4.63,2.72,6.12ZM232.84,117.71c-.41-.33-3.69-8.1-4.46-9.53-.84-1.57-5.6-9.69-6.75-10.05-.8-.24-1.98-.2-3.03-.51-.66-.19-3.21-1.36-3.39-1.32-1.99.41,2.63,3.24,3.09,3.68,6.16,5.96,10.51,21.55,14.54,29.66,1.83,3.68,4.46,7.58,8.97,4.71,2.17-1.38,2.05-5.58,1.85-7.86-.51-5.82-10.19-24.11-14.16-28.86-2.12-2.53-1.99-1.47-4.42,0,1.92,2.45,3.53,5.18,5.06,7.9,1.23,2.17,4.58,7.84,5.12,9.91.15.58.38,2.17-.14,2.53-.48.33-1.82.13-2.3-.25ZM125.65,99.57c-.18-.15-1.47-.08-1.75.1-.19.12-.81,1.9-1.12,2.42-.92,1.53-1.8,2.51-3.39,3.39s-2.39.26-1.3,2.96c2.08,5.21,16.6,4.92,16.44-2.42-2.71.06-6.41-1.74-7.92-4.03-.4-.6-.87-2.33-.97-2.42ZM164.84,101.08c-.21-.12-4.45-.96-4.73-.91-.67.12-1.27.96-1.98,1.28-1.05.48-3.34.45-3.55,1.47-.41,2.02,2.46,8.7,4.15,10,4.8,3.69,10.05,1.4,9.39-4.96-.13-1.28-2.32-6.34-3.28-6.88ZM225.95,121.89c.61-.72-2.67-8.76-3.26-10.09-1.32-2.96-5.3-10.67-8.51-11.54-1.63-.44-1.61,1.07-3.07,1.32-.55.58,1.36,1.68,1.88,2.23,1.27,1.35,6.01,6.81,6.56,8.17.74,1.83-.14,3.83-2.21,2.8-1.69-.84-1.97-3.84-2.93-5.61-.56-1.03-3.98-5.64-4.79-6.11-1.31-.75-4.4.44-6.06.02-.56.55,4.49,8.86,5.24,9.93,3.88,5.53,9.67,11.6,17.15,8.89ZM150.75,101.9c-2.7-.36-4.48-2.11-7.47-1.49-.65,1.5-1.27,2.64-2.57,3.67s-3.98,1.44-1.07,3.17c4.65,2.77,10.87.22,11.12-5.35ZM189.69,106.61c1.86,5.32,5.39,12.9,11.26,14.52,3.38.93,7.65-.08,7.16-4.21-3.74-4.36-6.3-9.5-9.14-14.44-.17-.04-2.67,1.81-2.9,2.04-.66.63.2.6.54.9,2.56,2.24,5.74,5.39,7.06,8.59.37.9.41,3.13-.61,3.46-2.7.85-2.51-3.22-3.03-4.84-.56-1.75-3.95-6.72-5.78-6.91-1.05-.11-3.22,1.32-4.56.89ZM96.77,106.61c-2.9,1.09-5.34-.87-7.66-2.36-.25,1.28-1.39,3.07-1.47,4.3-.08,1.15.44,2.63.29,4.1-.1,1-1.22,1.96.14,2.2,3.87.7,7.98-4.94,8.69-8.25ZM186.96,106.09c-.19-.15-2.16-.79-2.28-.67-1.12,4.31.54,7.56,2.5,11.2.54,1,4.75,6.21,1.5,5.9-.96-.09-2.82-3.47-3.26-4.43-.52-1.12-1.96-6.53-2.22-6.77-.4-.38-.9.81-1.37,1.13-.88.62-1.97.81-2.94,1.19-.3.12-.51-.16-.4.46,2.44,3.72,8.43,14.07,14.01,10.46,1.63-1.06,2.26-3.31,1.91-5.15-.09-.48-3.81-5.81-4.47-7.02-.53-.97-2.71-6.08-2.98-6.3ZM74.36,106.31c-.69-.19-.49.17-.67.37-3,3.45-1.5,9.28-1.78,13.28-.15,2.1-3.07,3.54-3.45.34-.34-2.84.88-6.69,1.18-9.58-1.85.78-3.53-.07-4.35,1.99-1.38,3.51-2.78,12.76-.37,15.82,2.63,3.34,6.32.98,8.38-1.64,2.54-3.24,1.44-4.62,1.98-8.33.2-1.41,1.19-3.94,1.16-5.06-.02-.71-1.33-2.45-1.65-3.66-.28-1.08-.41-2.42-.44-3.54ZM19.6,111.8c-1.39-1.44-2.05-3.22-2.32-5.19-1.58,1.65-1.81,3.64-2.16,5.79-3.4,20.87-4.14,56.93,5.41,76.07,1.78,3.57,5.49,7.37,6.62,1.07-2.57-10.14-6.31-21.06-7.08-31.53-.18-2.46.19-2.97-.44-5.45-1.97-7.69-1.2-16.14-.43-24.01.5-5.12,1.45-10.22,2.1-15.32-.03-.61-1.22-.93-1.7-1.43ZM44.56,106.6c-.69-.72-1.09,2.22-1.14,2.54-.68,4.26-.37,9.06-.95,13.19-.42,3.01-3.77,2.81-3.81.33-.03-1.46.93-5.61,1.33-7.23.57-2.3,1.53-4.51,2.21-6.77-.45-.11-.16.39-.51.57-1.2.63-4.01.71-4.51,1.04-.74.48-1.9,8.63-2.05,10.03-.38,3.58-1.13,10.47-.88,13.83.14,1.9,2.11,7.99,4.71,6.78,1.92-.89,4.93-7.47,5.75-9.58,1.98-5.07,1.44-8.46,2.3-13.61.38-2.28,1.05-4.59,1.65-6.82-.84-.92-2.2-1.01-3.08-1.93-.73-.77-.93-2.28-1.02-2.37ZM152.82,106.6c-.37-.33-2.5,2.09-2.97,2.48-1.68,1.36-2.22.31-2.05,2.98.16,2.46,1.42,5.01,3.93,5.79,2,.63,5.28-.7,5.48-2.92.02-.27-2.56-3.64-3.02-4.55-.57-1.14-1.12-2.54-1.37-3.79ZM34.83,109.85l-1.62-.59-1.91-2.35c-1.81,4.12-2.49,8.62-2.95,13.1-.48,4.63-.28,9.85-.92,14.4-.3,2.14-2.18,2.04-2.58.86-.25-.74-.13-5.89-.04-7.02.4-5.46,2.48-11.31,4.12-16.5-1.49.78-2.91,2.08-4.71,1.92-.65,7.13-2.11,14.21-2.65,21.35-.3,3.89-.59,8.82-.31,12.67.17,2.39,1.55,7.56,4.81,5.95,1.45-.71,2.14-3.41,2.44-4.92,1.67-8.37,1.99-18,3.46-26.59.71-4.15,1.88-8.21,2.87-12.3ZM60.6,109.74c-.28-.31-1.38-2.78-1.87-2.25-.33,2.79-.93,5.59-1.18,8.39-.25,2.85.09,6.82-.31,9.4-.29,1.83-2.46,2.85-3.1.77-.57-1.88.47-7.3.9-9.44.45-2.27,1.14-4.73,1.91-6.92-1.11.23-2.03,1.05-3.16,1.26-.58.11-2.27-.02-2.41.1-.27.23-1.12,6.04-1.2,6.89-.31,3.19-.54,9.58.45,12.5,1.62,4.8,6.42,3.21,8.82,0,.23-.31,1.54-2.61,1.59-2.85.25-1.21-.37-5.15-.24-6.99.22-3.13,1.19-6.41,2.07-9.41-.68-.43-1.72-.85-2.27-1.45ZM140.43,110.44l-3.95-1.75-3.42,4.4c1.53.19,2.62.35,4.13-.15.59-.19,3.68-1.91,3.25-2.5ZM122.14,114.85c-2.86-.74-4.9-2.24-6.49-4.72-1.22,3.02-3.95,4.29-6.94,5.01-.96.23-.23,1.08.15,1.61,3.46,4.79,11.65,3.99,13.27-1.91ZM145.74,111.02c-.82.28-2.29.12-2.95.44-.47.22-.86,1.41-1.32,1.93-1.26,1.42-3.33,2.1-2.68,4.13.82,2.54,5.08,2.13,6.61.39,1.72-1.96.06-2.79.03-4.69-.01-.75.38-1.44.3-2.19ZM81.73,118.24c-.23-1.32.17-3.17,0-4.56l-3.25.29c-.4,3.59-.79,15.71,5.89,12.5,2.93-1.41,2.88-9.47,2.24-12.22-.21-.89-1.61-4.4-1.94-1.9-.24,1.84,2.36,6.89-.27,7.67-1.25.37-2.45-.55-2.66-1.79ZM13.3,111.91c-.2-.22-3.29,1.88-3.24,2.51l.29,18.99,1.22-10.7,1.73-10.79ZM170.52,113.38c.45,2.03-4.02,3.72-4.11,4.01-.49,1.6,4.44,8.45,5.88,9.68,3.27,2.8,8.38,4.07,11.16-.05.3-.44,1.02-1.72.8-2.15-.31-.62-2.48-2.61-3.1-3.4-1.52-1.94-4.2-6.66-5.61-7.95-.67-.62-2.98-1.31-3.84-1.17,1.21,1.25,2.27,2.71,3.19,4.17.64,1.02,3.36,5.68,3.53,6.51s-.65,1.85-1.54,1.83c-1.48-.03-1.2-1.67-1.64-2.8-1.15-2.94-2.71-5.68-4.12-8.49l-.61-.18ZM103.55,114.86c-1.16-.09-2.7-.58-3.73-1.13-.76-.4-1.08-1.24-1.85-1.23-1.5,3.19-5.09,5.61-8.56,6.18.37,4.26,5.49,7.03,9.31,5.32,2.79-1.25,5.22-6.09,4.83-9.14ZM136.3,116.91c-1.43.06-3-.05-4.37-.5-1.02-.33-2.16-1.39-2.94-1.51-.92-.15-2.33.54-3.42.23-.15,1-2.41,4.53-2.23,5.12s2.78,1.71,3.45,1.88c4.3,1.1,9.9.27,9.51-5.22ZM164.28,117.55c-1.27.19-3.99-1.09-4.96-.49-.15.09-1.44,1.83-1.48,2.08-.15.94.98,5.5,1.42,6.52,1.45,3.34,7.11,6.66,10.1,3.49,1.31-1.39-.97-3.14-1.83-4.67-1.24-2.21-2.28-4.58-3.24-6.92ZM155.47,120.45c-1.92.57-4.2.38-5.88-.76-1.35-.92-1.45-2.63-2.92-.52-2.11,3.03-.37,7.83,3.6,7.45,2.29-.22,5.34-3.82,5.2-6.17ZM113.89,123.98c-3.18-.54-6.39-2.34-7.82-5.3-.78,1.24-1.21,2.67-1.98,3.92-1.21,1.98-2.97,2.14-.96,4.02,4.03,3.76,8.87,2.25,10.76-2.64ZM223.02,139.57c.23-.32-2.07-6.52-2.43-7.42-.75-1.89-2.67-6.87-4.07-8.01-.79-.64-2.14-1.25-3.07-1.94-.72-.53-2.24-2.22-2.81-2.51-.62-.32-1.31.53-1.15,1.14.12.45,2.38,2.37,2.91,3.01,1.3,1.57,4.21,5.37,4.16,7.36-.06,2.15-2.13,2.03-3.22.53-1.23-1.7-3.21-6.78-4.24-9.03-.16-.34-.24-.71-.24-1.09-1.55.41-2.53,2.11-4.12,2.51-.89.23-1.76.14-2.66.14,3.63,7.53,11.17,18.4,20.93,15.3ZM142.78,123.11l-2.72-.08-3.32-1.11c-.44,1.51-.49,7.39.44,8.41.83.9,3.33.87,4.41.26s2.32-3.27,2.31-4.45c0-.68-1.47-1.94-1.12-3.02ZM121.25,122.22l-4.35,1.83c-.44,2.35-.72,4.51-2.13,6.53,6.17,5.05,12.68,2.24,15.63-4.54-3.29.18-7.64-.58-9.15-3.83ZM134.83,124.57c-1.79.74-2.21,3.25-3.19,4.91-.48.82-1.21,1.89-1.83,2.59s-3.45,2.77-3.49,2.99c-.12.61,2.2,2.96,2.76,3.35,2.26,1.58,6.05,1.7,8.37.15-1.96-4.37-2.77-9.21-2.62-14ZM92.94,127.22c-.15.15.25,4.06-1.61,3.53-.88-.25-.79-5.53-2.52-5.88-.3,3.03-2.6,3.48-1.24,6.68.87,2.05,3.06,2.52,4.99,1.63,1.74-.8,2.49-4.18,2.44-5.96-.4.06-1.98-.09-2.07,0ZM147.51,128.69c.02,5.41,7.78,8.03,9.95,2.43,1.07-2.77-1.09-3.55-.81-6.25-2.3,2.78-5.24,5.76-9.14,3.83ZM229.88,135.98c-.58-.56-1.79-3.54-2.38-4.54-.48-.8-3.05-5.15-3.42-5.42-.71-.51-2.7-.22-3.71-.42l9.52,22.3c.76,1.49,2.35,3.92,3.84,4.7,1.96,1.03,5.32,0,6.26-2.12,1.2-2.7.52-8.3-.97-10.82-.61-1.03-1.69-.91-2.63-1.49-1.6-.98-2.59-2.19-3.78-3.59-.04,1.41-1.56,2.52-2.73,1.39ZM77.38,134.51c-.88-.91.48-6.27-1.4-7.58-1.96,2.57-3.09,3.12-2.8,6.62.51,6.01,5.65,7.45,9.58,3.1,2.35-2.6,1.31-3.08.72-6.17-.62.07-1.65-.17-2.17-.03-.18.05-.89,2.84-1.45,3.46-.48.53-1.87,1.25-2.49.61ZM97.07,127.22v4.56c0,.72-.84,2.49-1.17,3.24l2.65-.6c-1.05-2.19-.61-4.6-.89-6.77-.06-.43-.23-.92-.59-.44ZM194.12,151.07v5.74c0,.73-1.08,2.19-1.18,2.97-.09.72.35,3.58.91,2.06.65-1.77.44-4.22,2.03-5.48-.48,3.28.16,6.57-1.03,9.71-1.12,2.96-1.35,1.61-1.31,5.14.04,4.19-.03,8.35.28,12.53.48-.83,2.32-2.03,2.35-.46.03,1.66-3.09,5.44-2.94,7.53,1.1-.22,2.41-4.29,3.54-3.24.1.09,0,2.29-.07,2.73-.39,2.24-1.95,4.38-3.47,5.97-.22.23-.73.35-.81.5-.35.6-.93,5.14-1.34,6.47-1.44,4.71-4.35,9.39-8.37,12.26-1.04.74-3.2,1.18-3.36,2.53-.53,4.39,1.2,6.52,5.74,6.02,11.14-1.22,14.65-25.58,14.34-34.27-.03-.81-.68-1.63,0-2.37.25-.27,1.42-.49,1.45-.87,0-.08-.52-.82-.57-1.47-.71-9.03.65-16.89-1.91-26.07-.5-1.79-1.51-3.41-2-5.07-2-6.68-3.39-13.56-6.26-19.96-.52-1.17-2.94-6.41-4.37-6.15-.9.17-2.32,4.19-2.28,5.1.06,1.23,3.16,6.32,3.91,7.9,1.01,2.13,2.03,4.4,2.6,6.68.59-.26.58-1.21,1.05-1.75.23-.27.68-.47,1.01-.61.31.42-1.32,7.79-.45,9.14,1.12,1.73,1.15-3.75,2.52-3.25ZM62.26,130.16c-.46-.33-1.9,2.51-1.99,2.87-.53,2.05.08,7.34,1.27,9.19,2.89,4.48,9.73-1.37,9.51-4.47-.09-1.3-.92-3.19-.83-4.65-1.43.22-2.62.84-4.13.59.26,1.38-.54,8.1-2.95,6.64-.95-.57-.04-1.83,0-2.66.08-1.43.2-4.27-.02-5.58-.04-.24-.79-1.87-.88-1.93ZM175.5,132.26c-.06-.1-1.7-.71-2.13-.97-.6-.35-1.06-1.33-1.78-1.11-1.55,2.48-3.64,3.32-6.38,3.96,1.92,2.54,4.89,2.82,7.68,1.48.9-.43,3.31-2.26,2.61-3.36ZM110.34,133.11h-4.57c-.52,0-2.78-.99-3.4-1.32s-2.03-1.91-1.75-.32c.44,2.49,4.33,4.59,6.03,6.05.7.6,2.39,2.88,2.94,2.95.68.09.37-.25.52-.66.82-2.14.63-4.5.22-6.71ZM56.36,136.06c-.91.49-5.08-.06-5.32.12-1.18.86,1.89,8.74-1.46,7.1-1.4-.69-1.55-7.23-1.18-8.82l-1.77-3.41c-.14,1.27-.87,2.56-1.11,3.75-.64,3.25-1.4,14.57-.52,17.45.42,1.37,2.5,4.79,4.27,3.97s4.33-6.46,5.16-8.41c.55-1.28,2.41-5.57,2.51-6.64.12-1.28-.61-3.7-.59-5.12ZM145.15,131.34c-1.32.53-2.24,1.9-3.67,2.37-1.08.35-2.01.31-3.11.28-.26.24,2.51,5.32,3.32,5.68,1.09.48,3.87-.79,4.65-1.7,2.48-2.92-1.76-3.39-1.18-6.63ZM195.89,142.24c.74,1.94,1.13,4.95,2.4,6.58.64.82,2.85,2.1,3.8,2.98,5.63,5.24,11.43,12.44,12.38,20.33.09.78-.03,4.64.13,4.87.38.54,3.13.64,3.85.57,7.54-.76,6.42-12.83,4.24-17.78-4.1-9.27-17.93-21.66-26.72-26.63-.67-.38-3.69-2.2-4.22-1.82.66,1.17,1.52,2.44,2.12,3.63.37.73,1.21,3.4,1.56,3.74.31.29,3.22,1.21,4,1.6,6.43,3.26,12.53,10.82,15.97,17.04.84,1.51,2.54,4.27,2.3,5.92-.15,1.07-.87,1.93-1.98,1.45-.39-.17-3.43-6.39-4.08-7.44-2.42-3.96-6.16-8.52-9.72-11.5-.69-.58-5.48-4.07-6.04-3.54ZM159.32,131.63c-.82,2.78-2.79,4.74-5.31,6.06,2.31,5.88,7.34,4.37,10.59.23-2.12-2.14-2.01-5.54-5.28-6.29ZM175.83,139c.43.3,2.04-1.84,2.31-2.25.87-1.31,1.6-2.93,1.67-4.51-.4.5-1.66.13-1.89.32-.1.08-.44,1.75-.76,2.34-.8,1.51-2.26,2.21-1.34,4.11ZM242.53,138.45l4.84,14.09c1.38,3.4,6.63,13.91,9.6,5.76,1.08-2.97.45-7.33-1.24-9.99-.56-.88-1.95-1.63-2.76-2.54-3-3.35-3.83-8.84-6.19-12.66-.8,2.22-1.86,4.46-4.24,5.34ZM124.74,135.81c-.34-.2-3.53.57-4.5.54-2.14-.07-4.65-1.04-6.65-1.77-.24,1.83-.44,2.06,1.04,3.23,3.56,2.82,7.32,1.87,11.04,0,.23-.35-.81-1.92-.93-2ZM177.6,214.38c3.96.24,7.03-3.23,8.72-6.46,5.97-11.49,5.51-37.08,3.59-49.84-1.17-7.78-4.43-14.9-7.59-22.02-1.31,1.47-1.86,3.42-3.12,4.98-1.02,1.26-2.9,2.17-3.07,3.72-.09.83.98.21,1.47.57,2.31,4.93,4.18,10.57,5.21,16,2.32,12.19.04,31.16-2.65,43.4-.72,3.27-1.85,6.4-2.56,9.66ZM146.82,142.43c-.38.38-1.82.82-1.67,1.42,1.7,1.53,8.37,6.71,9.87,3.09,1.27-3.05-1.35-3.66-2.62-5.61-.57-.88-1.45-3.85-1.63-3.97-1.58-1.08-1.65,1-2.13,2.04-.42.91-1.13,2.34-1.83,3.03ZM100.56,138.16c-.15-.24-1.69-.68-2.13-.64-.98.09-5.44,2.17-6.35,2.82-1.63,1.16-2.48,2.81-4.73,3.52-1.93.61-3.44-.14-4.23,2.55-.74,2.52.64,2.58.92,4.3.35,2.16-1.53,5.17,2.71,5.08-2.78-5.75-1.03-10.63,5.02-12.8,2.12-.76,8.12-.82,8.78-3.01.11-.37.18-1.52,0-1.81ZM166.73,139.63c-.12.07-.89,1.96-1.22,2.46-.66,1.01-2.26,1.96-1.34,2.8,3.4,3.09,9.53.96,9.81-3.76.19-3.21-1.38-1.69-3.02-1.54-.85.07-3.85-.19-4.23.05ZM112.71,139.59c-.31,1.2-1.74,5.48-2.86,5.83-2.98.92-1.97-1.96-2.91-3.46-.33-.53-3.5-2.9-3.67-2.66.18,1.79-.08,3.09-1.68,4.07-1.32.81-1.87.44-3.11.72-3.49.8-9.15,1.77-9.9,6.03-.46,2.63,2.29,5.99,4.95,5.97.62-2.11-1.75-1.51-2.36-3.09,2.28-1.31,2.01-2.79,2.36-5.01.19-1.21,1.34.29,1.97.39.59.09,1.89-.31,2.89-.24,2.51.17,4.95.79,7.41,1.14,1.07.15,4.25-.44,3.32,1.3-.76,1.41-1.94.98-2.54,1.45-1.08.86,1.03,2.93,2.59,2.46,2.26-.69,1.14-2.46,2-4.21.34-.7,1.05-1.01,1.37-1.58.36-.65.5-1.68,1-2.54,1.85-3.21,4.04-4.11-.83-6.57ZM36.6,143.41c-.12.12-.29,2.9-.31,3.38-.04.91.37,2.16.2,2.81-.27.99-1.1,1.48-1.93.72-1.8-1.65.87-8.74-1.78-10.44l-1.49,16.04c-.36,2.79.56,10.84,4.31,11.05.54.03,2.37-.87,2.7-1.26.78-.92,2.07-6.35,2.36-7.81,1.1-5.71.82-11.13,1.27-16.84l-3.03,2.13c-.44.4-2.18.12-2.28.22ZM274.94,181.7c-6.38,1.47-5.38-6.69-5.93-10.71-1.29-9.39-3.17-18.75-5.71-27.86-1.02,1.72-2.07,3.49-3.93,4.47l-.08.38c3.79,11.42,6.21,23.27,8.2,35.14.63,3.78.75,8.67,1.62,12.22.2.82.87,1.97,1.8,1.63,2.97-1.09,4.21-12.37,4.04-15.26ZM157.54,149.3h4.87c.06,0,1.06-.27,1.13-.3.86-.36-.43-.73-.7-1-.53-.52-1.7-2.21-2.06-2.37-2.27-1.02-1.71.84-2.29,2.12-.28.6-1,.85-.95,1.56ZM102.97,151.36c-.13-2.3-5.73-2.56-4.15-.13,1.08,1.67,2.67-.14,4.15.13ZM133.94,154.89l-5.49-4.39c-.61-.1-.81.85-1.22,1.16-1.39,1.07-3.38.98-.94,2.77s4.99,1.7,7.65.46ZM104.45,154.31c-.24-.23-2-.69-2.48-.32-1.83,1.4,3.63,1.43,2.48.32ZM200.75,154.32c2.4,9.86,2.08,20.08,2.51,30.18.35,1.81,3.81-.5,4.7-1.2,10.06-7.8-.88-22.44-7.21-28.98ZM28.34,155.78c-1.88,1.02-3.61,1.21-5.6.29-.45.63,1.57,11.04,1.9,12.67,1.37,6.66,3.96,13.74,5.09,20.24.12.67.33,1.86.3,2.49-.06,1.28-1.1,2.66-1.04,3.53.11,1.71,1.81,5.17,2.9,6.55,2.03,2.59,7.27,6.73,6.12.08-.47-2.71-2.66-7.34-3.55-10.29-1.92-6.36-4.6-15.03-4.93-21.58-.07-1.42.32-3.24.23-4.35-.09-1.05-.93-2.78-1.08-4.23-.18-1.8.18-3.64-.34-5.41ZM146.07,219.71c-2.77,8.85,3.46,14.32,12.06,11.3,9.24-3.24,17.23-21.7,19.85-30.54,4.37-14.78,4.45-29.79.51-44.69l-.83,2.56c-2.46,3.08-1.31,5.33-1.22,8.77.22,8.5-.45,17.3-3.25,25.34,1.13-.34.83-1.89,2.33-1-.18,2.84-2.68,5.14-4.99,6.6,1.45.51,3.19-1.42,4.27-1.63.78-.15.42.7.22,1.11-1.46,2.94-3.5,2.81-5.22,4.21-.21.17-2.14,2.53-.97,2.27,1.69-.37,1.01.84.35,1.82-1.55,2.27-4.21,2.06-5.69,4.92-1.18,2.29,1.45,1.3,2.91,1.28.68.67-3.51,4.4-4.72,4.12.27.74,1.09-.29.88,1.02-.44,2.75-6.54,3.36-8.67,3.07-.9-.12-1.85-.78-2.67-.81-1.46-.05-3.54.51-5.14.27ZM90.57,157.86c-.23-.27-2.71-.71-3.24-.3.4.8,1.99,1.13,2.8,1.18.67.04.57-.72.43-.87ZM128.19,198.19c-1.59.26-3.79-.19-5.46,0-.07.41,1.44.65.89,1.18-.12.11-2.81.48-3.26.46-3.02-.18-3.25-1.98-4.63-2.44-.75-.26-2.1-.27-3.03-.51-1.2-.3-5.27-1.64-6.07-1.61-.49.02-1.59,1.73-1.84,2.25-2.89,6.05,3.56,7.95,8.19,8.8,14.18,2.58,23.8-5.17,29.72-17.18,4.54-9.2,7.5-19.73,8.66-29.92l-5.03-1.65c0,3.21-.56,6.64-1.28,9.77-.55,2.38-2.39,6.37-2.56,8.34s1.95-.85,2.66-.15c.12,4.16-4.98,5.09-6.49,8.69l2.95-.59c-.71,1.09-1.95,2.42-2.95,3.24-2.12,1.73-5.63,4.05-7.99,5.57-.64.41-3.66,1.79-3.81,1.94-.58.61,1.37.89,1.63.89,1.05.02,2.11-.69,3.08.43.19.81-2.7,2.38-3.39,2.5ZM124.21,160.5c-1.65-.24-2.72-2.46-3.24.29,1.05.22,2.5.99,3.24-.29ZM123.32,214.97c.17.15,3.97.6,4.53.56,5.78-.35,11.29-8.1,14.63-12.5,8.06-10.61,15.2-25.18,14.17-38.86-.04-.5-.23-2.3-.34-2.6-.19-.54-2.27-1.65-2.55-.58-2.01,11.23-4.75,24.15-10.84,33.93-.49.78-3.44,4.58-3.37,4.88.13.56,1.44.18,1.18.89-.16.42-1.68,1.43-2.16,1.67-.72.36-2.74.74-2.85.83-.69.56,1.39.88,1.63.89.32,0,1.97-.71,1.62.14-1.83,1.9-4.53,2.43-7.08,2.51,1.19,1.91,3.78.81,5.6,1.32-.57.73-1.51.94-2.36,1.18-1.43.41-4.77.51-5.6.89-.63.29-4.73,3.45-5.81,4.2-.18.13-.89.22-.39.65ZM67.27,226.16c-1.85.66-3.36,3.18-3.25,5.14s2.51,5.89,4,7.22c1.41,1.26,5.88,2.66,7.81,3.1,18.87,4.26,41.46-6.4,57.03-16.4,7.9-5.08,11.72-7.88,16.67-16.04,8.06-13.28,13.32-29.79,11.7-45.45l-2.21-1.17c1.25,14.17-4.34,29.81-13.28,40.77-.5.61-3.99,3.54-3.24,4.28l3.24-.29c.62,3.16-4.95,3.01-5.9,4.13s2.25.28,2.65.14c.54-.19,2.06-1.55,2.34-.55.61,2.16-3.65,5.19-5.5,5.64-1.6.4-3.65-.19-4.88.14-.63.17-2.01,1.2-2.88,1.54-2.87,1.13-4.91,1.64-8.07,1.29-1.14-.12-3.5-1.26-4.1-1.1-.44.12-2.43,1.84-3.07,2.26-6.18,3.95-13.23,7.42-20.44,8.89-.41.37,2.17,2.43,1.77,3.24l-3.56-.13-4.11-1.93c.96,1.86,3.23,2.6,4.72,3.97-2.28,1.2-5.15,1.05-7.3-.37-.81-.54-1.83-1.99-2.59-2.13-.9-.16-1.75.29-2.63.31-5.93.14-12.26-.36-14.91-6.49ZM173.17,163.73c-2.35.07-3.98,1.62-6.34,1.7-.7.02-1.68-.45-2.51-.23.7,18.56-5.18,37.49-16.52,52.12,7.73-.2,12.79-6.13,16.64-12.1,6.27-9.71,8.88-19.48,9.33-31.03.14-3.57-.27-6.93-.6-10.47ZM229.81,223.21c6.69,2.3,11.76-5.36,13.07-10.95,2.87-12.27-3.03-23.91-8.99-34.19l-7.31-11.39c.43,1.35-.53,4.7-.25,5.67.15.51,1.3,1.3,1.71,1.84,5.43,7.04,8.04,17.32,10.07,25.88.31,1.31,2.03,4.28-.11,5.27-2.71,1.25-2.68-3.43-3-4.81-1.98-8.58-5.91-16.51-9.6-24.43-.3-.22-1.82,1.53-1.92,1.76-.15.33,2.76,5.65,3.16,6.58,3.35,7.72,7.35,19.66,6.73,28.02-.27,3.65-1.27,7.83-3.54,10.75ZM217.72,180.23c4.44,6.88,6.92,15.28,8.7,23.26.41,1.84,1.6,6.27,1.61,7.85.01,1.76-2.98,2.45-3.47.78-.31-1.03-.19-3.61-.39-4.91-1.42-9.49-4.41-18.69-9.26-26.98-.16-.31-.86-.41-1.03-.3-.13.09-.79,2.23-1.13,2.85-.31.58-1.39,1.58-1.47,2.06-.09.55,3.77,8.85,4.3,10.32.41,1.14.71,2.43.95,3.62.99-.22.61-3.29,1.76-2.36.76.62-.06,6.94,0,8.24.73-.44.6-2.71,1.77-2.65-.46,2.83-.74,5.66-.59,8.54,3.16-1.82,1.24,2.1,1.27,3.34.02,1.09.7,3.15.79,4.47.56,8.43-.51,17.06-4.13,24.73,9.31,1.58,13.32-8.84,13.15-16.36-1.9-.56-4.2-1-5.48-2.62,2.18-.84,3.62-3.17,4.26-5.32,2.59-8.69-1.37-23.57-5.01-31.78-.42-.94-3.3-6.78-3.73-7.03-.47-.28-2.17.52-2.9.25ZM209.45,186.71l-3.24,1.03c3.92,8.48,6.28,17.75,7.08,27.09.3,3.52.74,9.82.23,13.18-.26,1.74-2.01,2.91-2.52,1.19-.58-1.94.11-7.71-.06-10.24-.59-8.7-3.89-21.15-6.78-29.46-.11-.33-.17-1.06-.59-1.02.21,2.88-1.42,6.18-1.19,8.98.18,2.17,1.75,6.16,2.27,8.63,2.61,12.51,3.39,28.15-3.79,39.32-.59.91-3.71,4.22-3.76,4.51-.2,1.16,4.89,3.44,5.94,3.73,5.9,1.65,9.86-2.29,11.15-7.74-.09-.09-2.77-.06-2.06-.88.03-.04.61-.11.9-.42,8.77-9.62,5.89-26.1,3.09-37.57-1.69-6.93-4.17-13.64-6.65-20.31ZM180.85,254.14c-.46.5,3.19,3.91,3.8,4.31,4.65,3.03,9.23-.94,12.12-4.47.17-.73-3.83-2.49-3.5-3.75.11-.42,1.34-1.34,1.73-1.83,7.66-9.71,9.59-22.67,7.93-34.7-.45-3.26-1.27-6.43-2.03-9.61l-3.24,9.87c-2.79,4.51-1.88,9.11-2.37,14.13-.88,9.14-3.79,23.99-14.45,26.06ZM136.89,266.51c.8.69-2.54,1.41-2.83,1.44-4.35.47-7.39-1.49-9.57-5.11-.49-.82-1.32-3.49-2.05-3.84-1.47-.71-2.86.14-3.67,1.35-2.61,3.88-.04,11.94,4.34,13.59,5.12,1.93,17.25-1.1,22.14-3.65,8.01-4.18,15.98-13.62,21.26-20.89,1.87-2.57,14.03-20.81,13.71-22.46-3.32-2.48-4.7-6.77-3.8-10.79l-8.55,12.23c-.09.4.02.56.43.43.68-.2,3.81-2.2,4.28-1.76-.07,1.76-1.6,3.25-2.65,4.56l1.47.59c-.7,1.79-2.59,2.47-3.82,3.83.26.07,2.42-.6,2.06.29-.12.29-4.33,3.57-4.92,3.92-1.15.68-3.78,1.24-4.24,1.66-.64.59-2.52,4.28-3.4,5.44-.27.36-2.72,2.46-.92,2.03.25-.06,2.99-1.17,2.56-.1s-4.9,3.11-5.9,4.13c2.15.71,1.26,1.5-.51,1.85-.86.17-2.09-.25-2.44.65,1.29-.23,2.27.82.76,1.5-2.15.97-6.06.14-8.22.63-1.08.24-2.69,1.92-4.04,2,.49,1.29,5.34,1.98,5.6,2.5.15.54-.61.63-.98.78-2.46.97-4.51.46-6.98-.04l3.6,1.56,1.71.21c.61.42-2.94.9-3.39.9-1.88.01-4.28-.61-5.96-1.44-1.07-.53-1.95-1.48-3.04-1.97,1.13,2.61,3.63,3.97,6.42,4.2.45.04,1.4-.33,1.54-.22ZM142.5,223.51l-11.36,6.77c-5.4,3.03-11.02,5.57-16.67,8.1l-9.43,3.39c3.95.29,8.25.17,12.2-.33,7.71-.97,16.23-4.29,22.02-9.53.61-.55,3.67-3.69,3.77-4.16.13-.66-1.02-3.14-.53-4.23ZM151.05,234.7c-1.32-.04-3.15-.77-4.23-1.52-.94-.65-2.04-2.81-2.94-2.57-.39.1-5.15,4.39-6.13,5.1-1.28.94-2.88,1.65-4.11,2.67-.33.67,1.31.48,1.62.44,1.26-.15,3.49-1.44,4.58-.75s-2.05,2.64-2.65,2.97c-2.51,1.34-5.5,1.74-8.27,2.2l1.18.88c-2.86,1.33-5.18,1.84-8.32,1.1-3.4-.81-3.18-.56-6.56-.49-1.78.04-7.32-.37-8.52.04-.41.14-1.91,2.72-2.06,3.24-1.25,4.25,2.7,5.6,6.13,5.85,14.68,1.09,30-4.73,38.75-16.7.23-.31,1.71-2.28,1.53-2.45ZM163.44,231.46c-2.39.93-4.53,2.51-7.06,3.1-.89.21-4.44.36-4.67.49s-1.37,2.62-1.71,3.15c-4.18,6.6-10.44,12.99-18.05,15.25-3.02.9-6.16,1.29-9.16,2.05-.3.08-.72-.04-.64.38,2,.34,3.89,1.66,5.89,2.22,4.83,1.35,6.71.68,11.03-1.37,6.99-3.33,15.72-9.81,20.02-16.24.77-1.15,5.1-8.23,4.36-9.05ZM149.43,255.31v.29c.19-.1.19-.2,0-.29Z"/><path class="d" d="M244.86,89.23c1.77-.33,1.74,1.55,2.46,2.69,1.54,2.43,2.61,1.97,4.59,3.07,1.54.85,1.35,3.8-.94,3.31-1.33-.28-5.36-6.04-5.88-7.39-.22-.58-.3-1.07-.23-1.68Z"/><path class="d" d="M128.92,23.56c.22.22.92,2.26,1.76,3.1,2.58,2.57,4.22,1.26,6.59,1.96.59.18.84,1.09,1.55,1.14.64.05.99-.58,1.41-.55,2.67.19,1.75,3.47-1.13,3.21-1.73-.16-1.81-2.14-2.39-2.34-.93-.33-3.32.15-4.53-.33.26,2.32,1.91,4.92,4.14,5.73,1.25.46,3.55.24,3.56,2.07.01,2.59-4.9.91-6.2-.02s-2.16-2.59-2.35-4.13c-.15-1.22.43-3.06.23-3.74-.18-.61-2.53-1.78-3.07-4.02-.06-.24-.41-2.93.45-2.08Z"/><path class="d" d="M159.8,18.45c-1.69,1.56-4.27,2.06-6.44,1.25-1.69-.63-1.37-1.08-3.92-1.45-.33-.05-.61.14-.44-.43,1.06-3.57,3.54-4.5,7.07-3.98l-2.62,1.65c-2.39,5.96,7.34,4.67,4.36,0-.49-.76-1.29-.55-1.14-1.36,2.21.83,5.54-1.89,7.24-.9,2.29,1.33-.91,1.43-1.51,1.76-.9.51-1.77,2.69-2.59,3.45Z"/><path class="d" d="M141.32,22.97c.13,2.71-3.61,2.87-5.41,1.72-2.18-1.4-1.66-3.94-1.37-6.13.79.5.78,1.58,1.34,2.34,1.05,1.4,3.74,2.14,5.44,2.08Z"/><path class="d" d="M141.02,32.99s.16.8.46,1.16c.36.44,1.02,1.17,1.47,1.49,1.38,1,3.89.85,3.33,2.74-.87,2.95-4.59.22-5.39-2.15-.1-.31-.98-4.35.13-3.23Z"/><path class="d" d="M154.92,25.95c1.34-.8,4.74,2.34,6.17,2.76,1.68,5.13-8.05-1.63-6.17-2.76Z"/><path class="d" d="M145.44,20.03c.06.05.33.88.88,1.33,1.21,1,3.27.9,1.9,3.35-1.07,1.92-3.01.27-3.47-1.2-.23-.75-.33-4.33.68-3.48Z"/><path class="d" d="M146.44,36.12c-.9-1-.98-2.49-.69-3.72l4.12,2.51c1.28.8.17,2.41-1.04,2.49-.65.04-1.95-.8-2.38-1.28Z"/><path class="d" d="M146.33,12.08c-.08,1.38,1.9,1.68,2.01,2.84.16,1.8-2.94,2.4-3.18-.07-.05-.53.49-3.42,1.17-2.77Z"/><path class="d" d="M140.72,15.61s.08.83.34,1.28c.57.96,3.28,3.47.94,3.97-.99.21-1.99-2.04-2.1-2.82-.05-.35.06-3.25.82-2.43Z"/><path class="d" d="M171.72,15.92c1.22-.83,3.45,3.78.67,4.04-1.99.19-1.29-3.01-.67-4.04Z"/><path class="d" d="M155.09,15.67c2.78-.84,3.06,3.35.25,2.89-1.43-.23-1.43-2.54-.25-2.89Z"/><path class="d" d="M151.93,7.07s.2.79.46,1.16c.53.75,1.86,1.93,1.47,2.67-.73,1.41-2.2-.11-2.45-1.1-.1-.38-.33-3.56.51-2.72Z"/><path class="d" d="M150.76,20.03c.73.27.9,1.19,1.48,1.62.46.34,3.06.91,1.64,1.94-2.02,1.46-3.18-2.01-3.11-3.55Z"/><path class="d" d="M160.19,7.96c.1.09.36,1.01,1.04,1.47.44.3,1.55.54,1.6.61.75,1.06-1.22,2.43-2.47.55-.4-.61-1.21-3.52-.17-2.64Z"/><path class="d" d="M157.54,10.61s-.05.46.2.59c.33.19,1.57.35,1.57.73,0,.48-1.64.62-2.08.31-.52-.37-.43-2.2.31-1.63Z"/><path class="d" d="M31.58,82.46l-2.7,13.8c-6.55,2.32-1.02-8.72.33-11,.19-.32,1.95-3.27,2.36-2.79Z"/><path class="d" d="M218.38,71.49c-1.13-1.15-.02-2.63,1.78-2.22.62.14,3.88,2.97,4.64,3.62,2.26,1.93,5.1,4.57,7.08,6.77,1.3,1.44,4.76,4.67,2.96,6.5-1.57,1.59-2.86-.98-3.55-1.78-3.25-3.75-6.62-7.89-10.32-11.19-.67-.6-2.23-1.33-2.58-1.69Z"/></g></svg>